<svg width="16" height="16" viewBox="0 0 16 16" fill="none" xmlns="http://www.w3.org/2000/svg">
<path d="M9.55782 6.06707C9.49971 6.00902 9.45361 5.94009 9.42216 5.86422C9.3907 5.78835 9.37452 5.70702 9.37452 5.62488C9.37452 5.54275 9.3907 5.46142 9.42216 5.38554C9.45361 5.30967 9.49971 5.24074 9.55782 5.18269L12.2414 2.49988H10.625C10.4592 2.49988 10.3003 2.43403 10.1831 2.31682C10.0659 2.19961 10 2.04064 10 1.87488C10 1.70912 10.0659 1.55015 10.1831 1.43294C10.3003 1.31573 10.4592 1.24988 10.625 1.24988H13.75C13.9158 1.24988 14.0747 1.31573 14.1919 1.43294C14.3092 1.55015 14.375 1.70912 14.375 1.87488V4.99988C14.375 5.16564 14.3092 5.32461 14.1919 5.44182C14.0747 5.55903 13.9158 5.62488 13.75 5.62488C13.5842 5.62488 13.4253 5.55903 13.3081 5.44182C13.1909 5.32461 13.125 5.16564 13.125 4.99988V3.38347L10.4422 6.06707C10.3841 6.12518 10.3152 6.17128 10.2393 6.20273C10.1635 6.23418 10.0821 6.25037 10 6.25037C9.91787 6.25037 9.83654 6.23418 9.76067 6.20273C9.6848 6.17128 9.61586 6.12518 9.55782 6.06707ZM15.6156 11.803C15.4763 12.8616 14.9564 13.8333 14.1531 14.5367C13.3497 15.24 12.3177 15.6268 11.25 15.6249C5.04688 15.6249 7.06925e-06 10.578 7.06925e-06 4.37488C-0.00190698 3.30714 0.384919 2.27521 1.08824 1.47183C1.79155 0.66845 2.76326 0.148558 3.82188 0.00925622C4.08949 -0.0234899 4.36051 0.0311625 4.59451 0.165059C4.82852 0.298956 5.01296 0.504921 5.12032 0.752225L6.77032 4.4366V4.44598C6.85242 4.63539 6.88633 4.84219 6.86901 5.04791C6.8517 5.25363 6.7837 5.45185 6.6711 5.62488C6.65704 5.64598 6.64219 5.66551 6.62657 5.68504L5.00001 7.61316C5.58516 8.80223 6.82891 10.035 8.0336 10.6218L9.93516 9.00379C9.95384 8.98809 9.9734 8.97348 9.99376 8.96004C10.1664 8.84426 10.3654 8.7736 10.5724 8.75449C10.7794 8.73538 10.988 8.76845 11.1789 8.85066L11.1891 8.85535L14.8695 10.5046C15.1174 10.6114 15.3241 10.7956 15.4585 11.0297C15.593 11.2637 15.6481 11.535 15.6156 11.803ZM14.375 11.6468C14.375 11.6468 14.3695 11.6468 14.3664 11.6468L10.6945 10.0014L8.79219 11.6202C8.77374 11.6358 8.75444 11.6504 8.73438 11.6639C8.5545 11.7839 8.34657 11.8552 8.1309 11.8709C7.91523 11.8865 7.6992 11.8459 7.50391 11.753C6.04063 11.046 4.58204 9.59832 3.87423 8.15066C3.7805 7.9568 3.73844 7.74201 3.75213 7.52712C3.76582 7.31222 3.83478 7.1045 3.95235 6.9241C3.9656 6.90292 3.98049 6.8828 3.99688 6.86394L5.62501 4.93348L3.98438 1.2616C3.98407 1.25848 3.98407 1.25534 3.98438 1.25222C3.22677 1.35105 2.53116 1.72267 2.02783 2.29747C1.5245 2.87228 1.24796 3.61085 1.25001 4.37488C1.2529 7.02616 2.3074 9.56801 4.18214 11.4428C6.05687 13.3175 8.59873 14.372 11.25 14.3749C12.0136 14.3775 12.7519 14.1019 13.3271 13.5997C13.9022 13.0975 14.2747 12.4029 14.375 11.646V11.6468Z" fill="#64748B"/>
</svg>
