<svg width="17" height="14" viewBox="0 0 17 14" fill="none" xmlns="http://www.w3.org/2000/svg">
<path d="M1.125 5.62465H2.8125V10.1247H1.6875C1.53832 10.1247 1.39524 10.1839 1.28975 10.2894C1.18426 10.3949 1.125 10.538 1.125 10.6872C1.125 10.8363 1.18426 10.9794 1.28975 11.0849C1.39524 11.1904 1.53832 11.2497 1.6875 11.2497H15.1875C15.3367 11.2497 15.4798 11.1904 15.5852 11.0849C15.6907 10.9794 15.75 10.8363 15.75 10.6872C15.75 10.538 15.6907 10.3949 15.5852 10.2894C15.4798 10.1839 15.3367 10.1247 15.1875 10.1247H14.0625V5.62465H15.75C15.8724 5.62453 15.9914 5.58449 16.089 5.51061C16.1866 5.43673 16.2574 5.33305 16.2907 5.21528C16.324 5.09751 16.318 4.97209 16.2736 4.85805C16.2292 4.744 16.1488 4.64755 16.0446 4.58332L8.73211 0.083322C8.6435 0.0288425 8.54152 0 8.4375 0C8.33348 0 8.2315 0.0288425 8.14289 0.083322L0.830391 4.58332C0.726207 4.64755 0.645813 4.744 0.601404 4.85805C0.556995 4.97209 0.550994 5.09751 0.584313 5.21528C0.617631 5.33305 0.688449 5.43673 0.786026 5.51061C0.883602 5.58449 1.00261 5.62453 1.125 5.62465ZM3.9375 5.62465H6.1875V10.1247H3.9375V5.62465ZM9.5625 5.62465V10.1247H7.3125V5.62465H9.5625ZM12.9375 10.1247H10.6875V5.62465H12.9375V10.1247ZM8.4375 1.22238L13.763 4.49965H3.11203L8.4375 1.22238ZM16.875 12.9372C16.875 13.0863 16.8157 13.2294 16.7102 13.3349C16.6048 13.4404 16.4617 13.4997 16.3125 13.4997H0.5625C0.413316 13.4997 0.270242 13.4404 0.164752 13.3349C0.0592632 13.2294 0 13.0863 0 12.9372C0 12.788 0.0592632 12.6449 0.164752 12.5394C0.270242 12.4339 0.413316 12.3747 0.5625 12.3747H16.3125C16.4617 12.3747 16.6048 12.4339 16.7102 12.5394C16.8157 12.6449 16.875 12.788 16.875 12.9372Z" fill="#389165"/>
</svg>
