<svg width="17" height="17" viewBox="0 0 17 17" fill="none" xmlns="http://www.w3.org/2000/svg">
<path d="M8.125 0C6.51803 0 4.94714 0.476523 3.611 1.36931C2.27485 2.2621 1.23344 3.53105 0.618482 5.0157C0.00352044 6.50035 -0.157382 8.13401 0.156123 9.71011C0.469628 11.2862 1.24346 12.7339 2.37976 13.8702C3.51606 15.0065 4.9638 15.7804 6.5399 16.0939C8.11599 16.4074 9.74966 16.2465 11.2343 15.6315C12.719 15.0166 13.9879 13.9752 14.8807 12.639C15.7735 11.3029 16.25 9.73197 16.25 8.125C16.2477 5.97081 15.391 3.90551 13.8677 2.38227C12.3445 0.85903 10.2792 0.00227486 8.125 0ZM14.1031 11.5172H11.4766L10.7531 10.5203L11.7398 7.64687L12.9117 7.26484L14.9617 8.8375C14.8647 9.78066 14.5723 10.6933 14.1031 11.5172ZM1.29063 8.8375L3.33672 7.26562L4.5086 7.64766L5.49532 10.5211L4.77344 11.5172H2.14688C1.67715 10.6934 1.38421 9.78078 1.28672 8.8375H1.29063ZM2.07188 4.88125L2.50235 6.33438L1.30547 7.24766C1.41158 6.41901 1.66898 5.61691 2.06485 4.88125H2.07188ZM6.64063 10L5.74532 7.39453L8.125 5.75859L10.5047 7.39453L9.60938 10H6.64063ZM13.7555 6.33438L14.1859 4.88125C14.5818 5.61691 14.8392 6.41901 14.9453 7.24766L13.7555 6.33438ZM13.2711 3.57031L12.5281 6.07656L11.3508 6.45859L8.75 4.67109V3.45391L11.0227 1.89141C11.8786 2.29171 12.6436 2.86309 13.2703 3.57031H13.2711ZM9.53672 1.39609L8.125 2.36641L6.71328 1.39609C7.64435 1.2013 8.60566 1.2013 9.53672 1.39609ZM5.22735 1.89141L7.5 3.45391V4.67109L4.9 6.45859L3.72266 6.07656L2.97969 3.57031C3.60642 2.86309 4.37136 2.29171 5.22735 1.89141ZM3.0586 12.7672H4.65L5.21016 14.3508C4.39674 13.968 3.66588 13.4301 3.0586 12.7672ZM6.71875 14.8539L5.79063 12.243L6.51172 11.25H9.73828L10.4594 12.243L9.53516 14.8539C8.60516 15.0488 7.64485 15.0488 6.71485 14.8539H6.71875ZM11.0438 14.3508L11.6039 12.7672H13.1953C12.5869 13.4305 11.8547 13.9684 11.0398 14.3508H11.0438Z" fill="#64748B"/>
</svg>
