<svg width="15" height="12" viewBox="0 0 15 12" fill="none" xmlns="http://www.w3.org/2000/svg">
<path d="M12.9375 0H1.6875C1.23995 0 0.810725 0.17779 0.494257 0.494257C0.17779 0.810725 0 1.23995 0 1.6875V9.5625C0 10.0101 0.17779 10.4393 0.494257 10.7557C0.810725 11.0722 1.23995 11.25 1.6875 11.25H12.9375C13.3851 11.25 13.8143 11.0722 14.1307 10.7557C14.4472 10.4393 14.625 10.0101 14.625 9.5625V1.6875C14.625 1.23995 14.4472 0.810725 14.1307 0.494257C13.8143 0.17779 13.3851 0 12.9375 0ZM1.125 3.375H13.5V4.5H9.5625C9.41332 4.5 9.27024 4.55926 9.16475 4.66475C9.05926 4.77024 9 4.91332 9 5.0625C9 5.51005 8.82221 5.93928 8.50574 6.25574C8.18928 6.57221 7.76005 6.75 7.3125 6.75C6.86495 6.75 6.43572 6.57221 6.11926 6.25574C5.80279 5.93928 5.625 5.51005 5.625 5.0625C5.625 4.91332 5.56574 4.77024 5.46025 4.66475C5.35476 4.55926 5.21168 4.5 5.0625 4.5H1.125V3.375ZM1.6875 1.125H12.9375C13.0867 1.125 13.2298 1.18426 13.3352 1.28975C13.4407 1.39524 13.5 1.53832 13.5 1.6875V2.25H1.125V1.6875C1.125 1.53832 1.18426 1.39524 1.28975 1.28975C1.39524 1.18426 1.53832 1.125 1.6875 1.125ZM12.9375 10.125H1.6875C1.53832 10.125 1.39524 10.0657 1.28975 9.96025C1.18426 9.85476 1.125 9.71168 1.125 9.5625V5.625H4.55625C4.68535 6.26079 5.03029 6.83239 5.5326 7.24296C6.03492 7.65353 6.66374 7.87782 7.3125 7.87782C7.96126 7.87782 8.59008 7.65353 9.0924 7.24296C9.59472 6.83239 9.93965 6.26079 10.0687 5.625H13.5V9.5625C13.5 9.71168 13.4407 9.85476 13.3352 9.96025C13.2298 10.0657 13.0867 10.125 12.9375 10.125Z" fill="#339992"/>
</svg>
