<svg width="18" height="14" viewBox="0 0 18 14" fill="none" xmlns="http://www.w3.org/2000/svg">
<path d="M9.6878 12.1885C9.6878 12.3739 9.63281 12.5552 9.5298 12.7094C9.42679 12.8635 9.28037 12.9837 9.10906 13.0546C8.93776 13.1256 8.74926 13.1442 8.5674 13.108C8.38554 13.0718 8.2185 12.9825 8.08738 12.8514C7.95627 12.7203 7.86698 12.5533 7.83081 12.3714C7.79464 12.1896 7.8132 12.0011 7.88416 11.8297C7.95512 11.6584 8.07528 11.512 8.22945 11.409C8.38362 11.306 8.56488 11.251 8.7503 11.251C8.99894 11.251 9.23739 11.3498 9.41321 11.5256C9.58902 11.7014 9.6878 11.9399 9.6878 12.1885ZM17.2722 3.04789C14.8694 1.07709 11.8579 0 8.7503 0C5.6427 0 2.63116 1.07709 0.228421 3.04789C0.164966 3.10001 0.112397 3.16411 0.0737174 3.23655C0.0350373 3.30898 0.0110031 3.38832 0.00298678 3.47005C-0.00502953 3.55177 0.00312916 3.63427 0.026997 3.71284C0.0508649 3.79141 0.0899745 3.86451 0.142093 3.92797C0.194211 3.99142 0.258318 4.04399 0.330752 4.08267C0.403186 4.12135 0.48253 4.14538 0.564253 4.1534C0.729299 4.16959 0.894018 4.11955 1.02217 4.01429C3.20124 2.22735 5.93223 1.25077 8.7503 1.25077C11.5684 1.25077 14.2994 2.22735 16.4784 4.01429C16.6066 4.11955 16.7713 4.16959 16.9363 4.1534C17.1014 4.13721 17.2532 4.05612 17.3585 3.92797C17.4638 3.79981 17.5138 3.63509 17.4976 3.47005C17.4814 3.305 17.4003 3.15315 17.2722 3.04789ZM14.7659 5.84242C13.0545 4.48743 10.9355 3.75019 8.75264 3.75019C6.56974 3.75019 4.45082 4.48743 2.73936 5.84242C2.60944 5.9454 2.52576 6.09577 2.50671 6.26045C2.48767 6.42513 2.53482 6.59063 2.6378 6.72054C2.74077 6.85046 2.89114 6.93414 3.05582 6.95319C3.2205 6.97224 3.38601 6.92509 3.51592 6.82211C5.00644 5.64228 6.85169 5.00036 8.75264 5.00036C10.6536 5.00036 12.4988 5.64228 13.9894 6.82211C14.0537 6.8731 14.1274 6.91093 14.2064 6.93343C14.2853 6.95592 14.3679 6.96265 14.4495 6.95322C14.531 6.94379 14.6099 6.91839 14.6816 6.87846C14.7533 6.83854 14.8165 6.78488 14.8675 6.72054C14.9185 6.65622 14.9563 6.58248 14.9788 6.50354C15.0013 6.42459 15.008 6.34199 14.9986 6.26044C14.9892 6.1789 14.9638 6.10001 14.9238 6.02829C14.8839 5.95656 14.8303 5.8934 14.7659 5.84242ZM12.2456 8.63617C11.2304 7.89835 10.0076 7.50095 8.75264 7.50095C7.49764 7.50095 6.27488 7.89835 5.25967 8.63617C5.12561 8.73376 5.03581 8.88061 5.01003 9.04441C4.98424 9.20821 5.02458 9.37555 5.12217 9.50961C5.21976 9.64367 5.36661 9.73347 5.53041 9.75925C5.69421 9.78504 5.86155 9.7447 5.99561 9.64711C6.79679 9.06443 7.76198 8.75057 8.75264 8.75057C9.7433 8.75057 10.7085 9.06443 11.5097 9.64711C11.5761 9.69543 11.6513 9.7302 11.7311 9.74944C11.8109 9.76869 11.8938 9.77202 11.9749 9.75925C12.056 9.74648 12.1338 9.71786 12.2038 9.67503C12.2739 9.6322 12.3348 9.57599 12.3831 9.50961C12.4314 9.44323 12.4662 9.36798 12.4854 9.28816C12.5047 9.20834 12.508 9.12552 12.4953 9.04441C12.4825 8.9633 12.4539 8.88551 12.411 8.81546C12.3682 8.74541 12.312 8.68449 12.2456 8.63617Z" fill="#64748B"/>
</svg>
