<svg width="12" height="12" viewBox="0 0 12 12" fill="none" xmlns="http://www.w3.org/2000/svg">
<path d="M12 0.5V2.75C12 2.88261 11.9473 3.00979 11.8536 3.10355C11.7598 3.19732 11.6326 3.25 11.5 3.25C11.3674 3.25 11.2402 3.19732 11.1464 3.10355C11.0527 3.00979 11 2.88261 11 2.75V1H9.25C9.11739 1 8.99021 0.947321 8.89645 0.853553C8.80268 0.759785 8.75 0.632608 8.75 0.5C8.75 0.367392 8.80268 0.240215 8.89645 0.146447C8.99021 0.0526785 9.11739 0 9.25 0H11.5C11.6326 0 11.7598 0.0526785 11.8536 0.146447C11.9473 0.240215 12 0.367392 12 0.5ZM11.5 8.75C11.3674 8.75 11.2402 8.80268 11.1464 8.89645C11.0527 8.99021 11 9.11739 11 9.25V11H9.25C9.11739 11 8.99021 11.0527 8.89645 11.1464C8.80268 11.2402 8.75 11.3674 8.75 11.5C8.75 11.6326 8.80268 11.7598 8.89645 11.8536C8.99021 11.9473 9.11739 12 9.25 12H11.5C11.6326 12 11.7598 11.9473 11.8536 11.8536C11.9473 11.7598 12 11.6326 12 11.5V9.25C12 9.11739 11.9473 8.99021 11.8536 8.89645C11.7598 8.80268 11.6326 8.75 11.5 8.75ZM2.75 11H1V9.25C1 9.11739 0.947321 8.99021 0.853553 8.89645C0.759785 8.80268 0.632608 8.75 0.5 8.75C0.367392 8.75 0.240215 8.80268 0.146447 8.89645C0.0526785 8.99021 0 9.11739 0 9.25V11.5C0 11.6326 0.0526785 11.7598 0.146447 11.8536C0.240215 11.9473 0.367392 12 0.5 12H2.75C2.88261 12 3.00979 11.9473 3.10355 11.8536C3.19732 11.7598 3.25 11.6326 3.25 11.5C3.25 11.3674 3.19732 11.2402 3.10355 11.1464C3.00979 11.0527 2.88261 11 2.75 11ZM0.5 3.25C0.632608 3.25 0.759785 3.19732 0.853553 3.10355C0.947321 3.00979 1 2.88261 1 2.75V1H2.75C2.88261 1 3.00979 0.947321 3.10355 0.853553C3.19732 0.759785 3.25 0.632608 3.25 0.5C3.25 0.367392 3.19732 0.240215 3.10355 0.146447C3.00979 0.0526785 2.88261 0 2.75 0H0.5C0.367392 0 0.240215 0.0526785 0.146447 0.146447C0.0526785 0.240215 0 0.367392 0 0.5V2.75C0 2.88261 0.0526785 3.00979 0.146447 3.10355C0.240215 3.19732 0.367392 3.25 0.5 3.25ZM4.3125 6.84437C3.6333 7.13903 3.04295 7.60614 2.6 8.19938C2.54411 8.27366 2.51003 8.36205 2.50159 8.45463C2.49316 8.54721 2.5107 8.64031 2.55225 8.72347C2.5938 8.80663 2.6577 8.87656 2.7368 8.92541C2.81589 8.97426 2.90704 9.00009 3 9H9C9.09296 9.00009 9.18411 8.97426 9.2632 8.92541C9.3423 8.87656 9.40621 8.80663 9.44775 8.72347C9.4893 8.64031 9.50684 8.54721 9.49841 8.45463C9.48997 8.36205 9.45589 8.27366 9.4 8.19938C8.95705 7.60614 8.3667 7.13903 7.6875 6.84437C8.0598 6.50446 8.32065 6.05993 8.43579 5.56912C8.55094 5.07832 8.51501 4.56416 8.33272 4.09414C8.15043 3.62412 7.83029 3.22019 7.41433 2.93536C6.99837 2.65053 6.50601 2.49812 6.00187 2.49812C5.49774 2.49812 5.00538 2.65053 4.58942 2.93536C4.17346 3.22019 3.85332 3.62412 3.67103 4.09414C3.48874 4.56416 3.45281 5.07832 3.56796 5.56912C3.6831 6.05993 3.94394 6.50446 4.31625 6.84437H4.3125Z" fill="#339992"/>
</svg>
