<svg width="17" height="17" viewBox="0 0 17 17" fill="none" xmlns="http://www.w3.org/2000/svg">
<path d="M15.8417 3.51674C15.8038 3.42303 15.7437 3.33992 15.6666 3.27453C15.5895 3.20914 15.4977 3.16343 15.3991 3.1413C15.3005 3.11918 15.1979 3.12131 15.1003 3.14751C15.0027 3.17371 14.9129 3.2232 14.8386 3.29174L11.6901 6.19721L10.344 5.90814L10.055 4.56205L12.9604 1.41361C13.029 1.33931 13.0785 1.24949 13.1047 1.15186C13.1309 1.05423 13.133 0.951707 13.1109 0.853074C13.0888 0.754441 13.043 0.662645 12.9776 0.58556C12.9123 0.508475 12.8291 0.4484 12.7354 0.410487C11.8815 0.0650444 10.9558 -0.0653854 10.0396 0.0306578C9.12344 0.126701 8.24489 0.446277 7.48114 0.961308C6.71738 1.47634 6.09181 2.17106 5.65938 2.98443C5.22694 3.7978 5.00089 4.70493 5.00107 5.62611C5.00006 6.40399 5.15964 7.17369 5.46982 7.88705L0.76591 11.9542C0.754192 11.9636 0.743254 11.9745 0.732317 11.9847C0.263422 12.4536 0 13.0896 0 13.7527C0 14.081 0.0646717 14.4061 0.190323 14.7095C0.315974 15.0128 0.500144 15.2885 0.732317 15.5206C0.96449 15.7528 1.24012 15.937 1.54347 16.0626C1.84682 16.1883 2.17194 16.253 2.50029 16.253C3.1634 16.253 3.79936 15.9895 4.26825 15.5206C4.27841 15.5105 4.28935 15.4988 4.29872 15.4878L8.36513 10.7824C9.22172 11.1584 10.1586 11.3148 11.0908 11.2375C12.0231 11.1602 12.9214 10.8516 13.7044 10.3397C14.4873 9.82774 15.1303 9.12861 15.5749 8.30557C16.0196 7.48254 16.252 6.56159 16.2511 5.62611C16.2523 4.90313 16.1133 4.18678 15.8417 3.51674ZM10.6261 10.0011C9.88628 10.0001 9.15877 9.81197 8.51122 9.45424C8.38577 9.38493 8.24031 9.36085 8.09921 9.38602C7.95812 9.4112 7.82996 9.4841 7.73622 9.59252L3.36904 14.6503C3.13271 14.8749 2.81802 14.9982 2.49207 14.994C2.16612 14.9898 1.85469 14.8585 1.62419 14.628C1.39369 14.3975 1.26235 14.0861 1.25817 13.7601C1.254 13.4342 1.37732 13.1195 1.60185 12.8831L6.65575 8.51674C6.76436 8.42295 6.83738 8.29465 6.86256 8.15339C6.88774 8.01212 6.86354 7.86649 6.79404 7.74096C6.39562 7.02036 6.20865 6.20196 6.25461 5.37985C6.30057 4.55773 6.5776 3.76527 7.05385 3.09357C7.5301 2.42188 8.18623 1.89822 8.94682 1.58279C9.70741 1.26736 10.5416 1.17298 11.3534 1.31049L8.91591 3.95189C8.84809 4.02547 8.79893 4.11425 8.77255 4.21077C8.74618 4.3073 8.74336 4.40874 8.76435 4.50658L9.20654 6.56361C9.23183 6.68126 9.29054 6.78911 9.37564 6.8742C9.46073 6.95929 9.56857 7.01801 9.68622 7.0433L11.7448 7.48549C11.8427 7.50647 11.9441 7.50366 12.0406 7.47728C12.1372 7.45091 12.2259 7.40175 12.2995 7.33392L14.9409 4.89642C15.0462 5.52377 15.0136 6.16653 14.8453 6.78C14.677 7.39346 14.3771 7.96291 13.9665 8.44873C13.5558 8.93455 13.0443 9.32509 12.4674 9.59318C11.8905 9.86126 11.2622 10.0005 10.6261 10.0011Z" fill="#339992"/>
</svg>
