<svg width="19" height="15" viewBox="0 0 19 15" fill="none" xmlns="http://www.w3.org/2000/svg">
<path d="M17.9945 9.14531C17.762 8.96637 17.4913 8.84347 17.2035 8.78615C16.9157 8.72884 16.6185 8.73866 16.3352 8.81485L13.0664 9.56641C13.1425 9.24515 13.1448 8.91085 13.0733 8.58856C13.0017 8.26626 12.8582 7.96434 12.6534 7.70541C12.4486 7.44649 12.1878 7.23728 11.8907 7.09347C11.5935 6.94965 11.2676 6.87497 10.9375 6.875H7.02656C6.69812 6.87418 6.37278 6.93845 6.06932 7.06409C5.76587 7.18974 5.49032 7.37427 5.25859 7.60703L3.49141 9.375H1.25C0.918479 9.375 0.600537 9.5067 0.366117 9.74112C0.131696 9.97554 0 10.2935 0 10.625L0 13.75C0 14.0815 0.131696 14.3995 0.366117 14.6339C0.600537 14.8683 0.918479 15 1.25 15H9.375C9.4261 15 9.47701 14.9937 9.52656 14.9813L14.5266 13.7313C14.5584 13.7237 14.5896 13.7132 14.6195 13.7L17.6562 12.4078L17.6906 12.3922C17.9825 12.2464 18.2324 12.0286 18.4168 11.7595C18.6013 11.4904 18.7142 11.1787 18.7449 10.8539C18.7756 10.5291 18.7231 10.2018 18.5924 9.90291C18.4617 9.60399 18.257 9.34327 17.9977 9.14531H17.9945ZM1.25 10.625H3.125V13.75H1.25V10.625ZM17.143 11.2664L14.1742 12.5305L9.29688 13.75H4.375V10.2586L6.14297 8.49141C6.25862 8.37483 6.39629 8.2824 6.54798 8.2195C6.69967 8.1566 6.86235 8.12448 7.02656 8.125H10.9375C11.1861 8.125 11.4246 8.22377 11.6004 8.39959C11.7762 8.5754 11.875 8.81386 11.875 9.0625C11.875 9.31114 11.7762 9.5496 11.6004 9.72541C11.4246 9.90123 11.1861 10 10.9375 10H8.75C8.58424 10 8.42527 10.0658 8.30806 10.1831C8.19085 10.3003 8.125 10.4592 8.125 10.625C8.125 10.7908 8.19085 10.9497 8.30806 11.0669C8.42527 11.1842 8.58424 11.25 8.75 11.25H11.25C11.297 11.2499 11.3439 11.2446 11.3898 11.2344L16.6242 10.0305L16.6484 10.0242C16.8082 9.97986 16.9788 9.99616 17.1273 10.07C17.2758 10.1438 17.3917 10.2699 17.4528 10.4241C17.5139 10.5783 17.5158 10.7496 17.4582 10.9051C17.4005 11.0606 17.2874 11.1893 17.1406 11.2664H17.143ZM12.8125 5.625C12.9669 5.62518 13.1211 5.61263 13.2734 5.5875C13.4448 6.09652 13.7583 6.54583 14.177 6.8823C14.5956 7.21878 15.1018 7.42835 15.6358 7.48623C16.1698 7.54412 16.7091 7.44791 17.1901 7.20897C17.6712 6.97003 18.0737 6.59836 18.3502 6.13789C18.6267 5.67743 18.7655 5.14742 18.7503 4.61055C18.7351 4.07367 18.5665 3.55237 18.2644 3.10828C17.9624 2.66419 17.5394 2.31588 17.0457 2.10453C16.5519 1.89318 16.008 1.82763 15.4781 1.91563C15.3131 1.42519 15.016 0.989788 14.6195 0.657327C14.223 0.324866 13.7424 0.108237 13.2307 0.0312798C12.7191 -0.0456771 12.196 0.0200212 11.7193 0.221145C11.2425 0.422269 10.8305 0.751021 10.5285 1.17122C10.2266 1.59142 10.0464 2.08679 10.0078 2.60279C9.96921 3.1188 10.0737 3.63545 10.3098 4.09589C10.546 4.55632 10.9045 4.94269 11.3461 5.21248C11.7876 5.48226 12.2951 5.62501 12.8125 5.625ZM17.5 4.6875C17.5 4.99653 17.4084 5.29863 17.2367 5.55558C17.065 5.81253 16.821 6.0128 16.5354 6.13106C16.2499 6.24932 15.9358 6.28027 15.6327 6.21998C15.3296 6.15969 15.0512 6.01088 14.8326 5.79236C14.6141 5.57384 14.4653 5.29543 14.405 4.99233C14.3447 4.68923 14.3757 4.37507 14.4939 4.08956C14.6122 3.80405 14.8125 3.56002 15.0694 3.38833C15.3264 3.21664 15.6285 3.125 15.9375 3.125C16.3519 3.125 16.7493 3.28962 17.0424 3.58265C17.3354 3.87567 17.5 4.2731 17.5 4.6875ZM12.8125 1.25C13.1534 1.25017 13.4848 1.3618 13.7563 1.56787C14.0279 1.77395 14.2245 2.06316 14.3164 2.39141C13.9963 2.61664 13.7267 2.9062 13.5249 3.24158C13.3232 3.57695 13.1936 3.95075 13.1445 4.33906C13.0354 4.36263 12.9241 4.37467 12.8125 4.375C12.3981 4.375 12.0007 4.21038 11.7076 3.91736C11.4146 3.62433 11.25 3.2269 11.25 2.8125C11.25 2.3981 11.4146 2.00067 11.7076 1.70765C12.0007 1.41462 12.3981 1.25 12.8125 1.25Z" fill="#3B82F6"/>
</svg>
