<svg width="15" height="16" viewBox="0 0 15 16" fill="none" xmlns="http://www.w3.org/2000/svg">
<path d="M12.5079 2.15578C11.835 1.47613 11.0347 0.93587 10.1527 0.56595C9.27072 0.196029 8.32444 0.00370852 7.36805 0H7.3125C5.3731 0 3.51314 0.770422 2.14178 2.14178C0.770422 3.51314 0 5.3731 0 7.3125V11.25C0 11.6976 0.17779 12.1268 0.494257 12.4432C0.810725 12.7597 1.23995 12.9375 1.6875 12.9375H2.8125C3.26005 12.9375 3.68928 12.7597 4.00574 12.4432C4.32221 12.1268 4.5 11.6976 4.5 11.25V8.4375C4.5 7.98995 4.32221 7.56072 4.00574 7.24426C3.68928 6.92779 3.26005 6.75 2.8125 6.75H1.15031C1.25879 5.57714 1.69934 4.4595 2.42031 3.52807C3.14129 2.59665 4.11283 1.89002 5.22105 1.49102C6.32928 1.09202 7.52828 1.01718 8.67752 1.27526C9.82676 1.53335 10.8786 2.11367 11.7098 2.9482C12.7258 3.96935 13.3507 5.31496 13.4754 6.75H11.8125C11.3649 6.75 10.9357 6.92779 10.6193 7.24426C10.3028 7.56072 10.125 7.98995 10.125 8.4375V11.25C10.125 11.6976 10.3028 12.1268 10.6193 12.4432C10.9357 12.7597 11.3649 12.9375 11.8125 12.9375H13.5C13.5 13.3851 13.3222 13.8143 13.0057 14.1307C12.6893 14.4472 12.2601 14.625 11.8125 14.625H7.875C7.72582 14.625 7.58274 14.6843 7.47725 14.7898C7.37176 14.8952 7.3125 15.0383 7.3125 15.1875C7.3125 15.3367 7.37176 15.4798 7.47725 15.5852C7.58274 15.6907 7.72582 15.75 7.875 15.75H11.8125C12.5584 15.75 13.2738 15.4537 13.8012 14.9262C14.3287 14.3988 14.625 13.6834 14.625 12.9375V7.3125C14.6287 6.35595 14.4435 5.40808 14.0803 4.5232C13.717 3.63831 13.1826 2.83381 12.5079 2.15578ZM2.8125 7.875C2.96168 7.875 3.10476 7.93426 3.21025 8.03975C3.31574 8.14524 3.375 8.28832 3.375 8.4375V11.25C3.375 11.3992 3.31574 11.5423 3.21025 11.6477C3.10476 11.7532 2.96168 11.8125 2.8125 11.8125H1.6875C1.53832 11.8125 1.39524 11.7532 1.28975 11.6477C1.18426 11.5423 1.125 11.3992 1.125 11.25V7.875H2.8125ZM11.8125 11.8125C11.6633 11.8125 11.5202 11.7532 11.4148 11.6477C11.3093 11.5423 11.25 11.3992 11.25 11.25V8.4375C11.25 8.28832 11.3093 8.14524 11.4148 8.03975C11.5202 7.93426 11.6633 7.875 11.8125 7.875H13.5V11.8125H11.8125Z" fill="#7A7A7A"/>
</svg>
