<svg width="60" height="60" viewBox="0 0 60 60" fill="none" xmlns="http://www.w3.org/2000/svg">
<g clip-path="url(#clip0_6_4476)">
<path d="M59.9167 60H42.5882L40.4339 57.4008L25.8325 39.7732L24.1657 37.7632L18.8349 31.3256L17.1681 29.3155L18.8349 27.3055L24.17 20.8723L25.8367 18.8577L39.31 2.59927H32.8892L22.6262 14.9848L20.9595 16.995L15.6245 23.4282L13.9578 25.4426L10.7474 29.3155L13.9578 33.1927L15.6245 35.2029L20.9554 41.6361L22.6177 43.6463L34.0131 57.4008L36.1676 60H32.8341L30.6798 57.4008L20.9511 45.6606L19.2887 43.6463L13.9578 37.2131L12.2911 35.2029L9.08075 31.3256L7.41406 29.3155L9.08075 27.3055L12.2911 23.4282L13.9578 21.4181L19.2929 14.9848L20.9595 12.9747L29.5559 2.59927L31.7102 0H44.7978L42.6435 2.59927L27.499 20.8723L25.8325 22.8823L20.5016 29.3155L25.8325 35.7487L27.499 37.7632L43.7672 57.4008H54.4289L32.8299 31.3256L31.1633 29.3155L32.8299 27.3055L53.3052 2.59927L55.4595 0H58.7928L56.6385 2.59927L34.4966 29.3155L57.7624 57.4008L59.9167 60Z" fill="#069494"/>
<path d="M5.43687 22.9169L8.64725 19.0181L10.3139 17.0079L22.2649 2.59927L24.4192 0H0V29.4585L3.77018 24.9184L5.43687 22.9169ZM23.1639 57.4094L10.1782 41.7531L8.51154 39.7387L5.30116 35.8656L3.65144 33.8556L0 29.4585V60H25.3183L23.1639 57.4094Z" fill="#069494"/>
</g>
<defs>
<clipPath id="clip0_6_4476">
<rect width="60" height="60" fill="white"/>
</clipPath>
</defs>
</svg>
