<svg width="380" height="372" viewBox="0 0 380 372" fill="none" xmlns="http://www.w3.org/2000/svg">
<path d="M379.467 372H269.72L256.076 355.885L163.6 246.594L153.044 234.132L119.282 194.219L108.726 181.756L119.282 169.294L153.071 129.408L163.627 116.918L248.958 16.1155H208.293L143.294 92.906L132.738 105.369L98.9496 145.255L88.3939 157.744L68.0615 181.756L88.3939 205.795L98.9496 218.258L132.712 258.144L143.24 270.607L215.411 355.885L229.056 372H207.944L194.3 355.885L132.685 283.096L122.156 270.607L88.3939 230.721L77.8383 218.258L57.5059 194.219L46.9502 181.756L57.5059 169.294L77.8383 145.255L88.3939 132.792L122.183 92.906L132.738 80.4433L187.182 16.1155L200.826 0H283.714L270.07 16.1155L174.155 129.408L163.6 141.87L129.838 181.756L163.6 221.642L174.155 234.132L277.187 355.885H344.711L207.917 194.219L197.362 181.756L207.917 169.294L337.594 16.1155L351.238 0H372.349L358.705 16.1155L218.473 181.756L365.823 355.885L379.467 372Z" fill="#069494"/>
<path d="M34.4335 142.085L54.7659 117.912L65.3216 105.449L141.011 16.1155L154.655 0H0V182.643L23.8778 154.494L34.4335 142.085ZM146.705 355.938L64.4621 258.869L53.9064 246.38L33.574 222.367L23.1258 209.905L0 182.643V372H160.349L146.705 355.938Z" fill="#069494"/>
</svg>
