<svg width="17" height="11" viewBox="0 0 17 11" fill="none" xmlns="http://www.w3.org/2000/svg">
<path d="M8.4375 2.25C7.88124 2.25 7.33747 2.41495 6.87496 2.72399C6.41245 3.03303 6.05196 3.47229 5.83909 3.9862C5.62622 4.50012 5.57052 5.06562 5.67904 5.61119C5.78756 6.15676 6.05543 6.6579 6.44876 7.05124C6.8421 7.44457 7.34324 7.71244 7.88881 7.82096C8.43438 7.92948 8.99988 7.87378 9.5138 7.66091C10.0277 7.44804 10.467 7.08755 10.776 6.62504C11.085 6.16253 11.25 5.61876 11.25 5.0625C11.25 4.31658 10.9537 3.60121 10.4262 3.07376C9.89879 2.54632 9.18342 2.25 8.4375 2.25ZM8.4375 6.75C8.10374 6.75 7.77748 6.65103 7.49998 6.46561C7.22247 6.28018 7.00618 6.01663 6.87845 5.70828C6.75073 5.39993 6.71731 5.06063 6.78242 4.73328C6.84754 4.40594 7.00826 4.10526 7.24426 3.86926C7.48026 3.63326 7.78094 3.47254 8.10828 3.40742C8.43563 3.34231 8.77493 3.37573 9.08328 3.50345C9.39163 3.63118 9.65518 3.84747 9.84061 4.12498C10.026 4.40248 10.125 4.72874 10.125 5.0625C10.125 5.51005 9.94721 5.93928 9.63074 6.25574C9.31428 6.57221 8.88505 6.75 8.4375 6.75ZM16.3125 0H0.5625C0.413316 0 0.270242 0.0592633 0.164752 0.164753C0.0592632 0.270242 0 0.413316 0 0.5625V9.5625C0 9.71168 0.0592632 9.85476 0.164752 9.96025C0.270242 10.0657 0.413316 10.125 0.5625 10.125H16.3125C16.4617 10.125 16.6048 10.0657 16.7102 9.96025C16.8157 9.85476 16.875 9.71168 16.875 9.5625V0.5625C16.875 0.413316 16.8157 0.270242 16.7102 0.164753C16.6048 0.0592633 16.4617 0 16.3125 0ZM13.0535 9H3.82148C3.63263 8.36128 3.28697 7.77997 2.816 7.309C2.34503 6.83803 1.76372 6.49237 1.125 6.30352V3.82148C1.76372 3.63263 2.34503 3.28697 2.816 2.816C3.28697 2.34503 3.63263 1.76372 3.82148 1.125H13.0535C13.2424 1.76372 13.588 2.34503 14.059 2.816C14.53 3.28697 15.1113 3.63263 15.75 3.82148V6.30352C15.1113 6.49237 14.53 6.83803 14.059 7.309C13.588 7.77997 13.2424 8.36128 13.0535 9ZM15.75 2.62758C15.0753 2.33746 14.5375 1.79969 14.2474 1.125H15.75V2.62758ZM2.62758 1.125C2.33746 1.79969 1.79969 2.33746 1.125 2.62758V1.125H2.62758ZM1.125 7.49742C1.79969 7.78754 2.33746 8.32531 2.62758 9H1.125V7.49742ZM14.2474 9C14.5375 8.32531 15.0753 7.78754 15.75 7.49742V9H14.2474Z" fill="#339992"/>
</svg>
