<svg width="11" height="13" viewBox="0 0 11 13" fill="none" xmlns="http://www.w3.org/2000/svg">
<path d="M9.5 0H1.5C1.10218 0 0.720644 0.158035 0.43934 0.43934C0.158035 0.720644 0 1.10218 0 1.5V11.5C0 11.8978 0.158035 12.2794 0.43934 12.5607C0.720644 12.842 1.10218 13 1.5 13H9.5C9.89782 13 10.2794 12.842 10.5607 12.5607C10.842 12.2794 11 11.8978 11 11.5V1.5C11 1.10218 10.842 0.720644 10.5607 0.43934C10.2794 0.158035 9.89782 0 9.5 0ZM10 11.5C10 11.6326 9.94732 11.7598 9.85355 11.8536C9.75979 11.9473 9.63261 12 9.5 12H1.5C1.36739 12 1.24021 11.9473 1.14645 11.8536C1.05268 11.7598 1 11.6326 1 11.5V1.5C1 1.36739 1.05268 1.24021 1.14645 1.14645C1.24021 1.05268 1.36739 1 1.5 1H9.5C9.63261 1 9.75979 1.05268 9.85355 1.14645C9.94732 1.24021 10 1.36739 10 1.5V11.5ZM6.25 2.75C6.25 2.89834 6.20601 3.04334 6.1236 3.16668C6.04119 3.29001 5.92406 3.38614 5.78701 3.44291C5.64997 3.49968 5.49917 3.51453 5.35368 3.48559C5.2082 3.45665 5.07456 3.38522 4.96967 3.28033C4.86478 3.17544 4.79335 3.0418 4.76441 2.89632C4.73547 2.75083 4.75032 2.60003 4.80709 2.46299C4.86386 2.32594 4.95999 2.20881 5.08332 2.1264C5.20666 2.04399 5.35166 2 5.5 2C5.69891 2 5.88968 2.07902 6.03033 2.21967C6.17098 2.36032 6.25 2.55109 6.25 2.75Z" fill="#339992"/>
</svg>
