<svg width="13" height="16" viewBox="0 0 13 16" fill="none" xmlns="http://www.w3.org/2000/svg">
<path d="M12.9417 12.6655C12.9417 13.035 12.8609 13.4 12.7049 13.7349C12.5488 14.0697 12.3214 14.3664 12.0385 14.6041C11.7556 14.8417 11.4241 15.0145 11.0673 15.1104C10.7105 15.2063 10.3371 15.2229 9.97317 15.1591C9.60927 15.0952 9.26376 14.9525 8.96088 14.741C8.658 14.5294 8.40511 14.2541 8.21996 13.9344C8.03482 13.6147 7.9219 13.2583 7.88914 12.8903C7.85638 12.5223 7.90458 12.1516 8.03034 11.8042L4.30378 9.41006C3.94787 9.75918 3.49678 9.99542 3.00711 10.0891C2.51745 10.1829 2.01101 10.1299 1.55132 9.9369C1.09164 9.7439 0.699194 9.41944 0.42321 9.00424C0.147227 8.58904 0 8.10159 0 7.60303C0 7.10447 0.147227 6.61702 0.42321 6.20182C0.699194 5.78662 1.09164 5.46216 1.55132 5.26916C2.01101 5.07615 2.51745 5.02319 3.00711 5.11691C3.49678 5.21064 3.94787 5.44688 4.30378 5.796L8.03034 3.40538C7.81695 2.819 7.82709 2.17456 8.05883 1.59519C8.29056 1.01582 8.72765 0.542146 9.28656 0.264678C9.84547 -0.0127903 10.487 -0.0745974 11.0886 0.0910664C11.6902 0.25673 12.2097 0.638249 12.5478 1.16272C12.8859 1.6872 13.0188 2.31785 12.9213 2.93418C12.8238 3.5505 12.5026 4.10929 12.0191 4.50377C11.5356 4.89824 10.9237 5.10074 10.3004 5.07257C9.67702 5.04441 9.0859 4.78755 8.63995 4.35108L4.91339 6.74522C5.11479 7.30178 5.11479 7.91132 4.91339 8.46787L8.63995 10.862C8.99575 10.5138 9.44633 10.2782 9.93533 10.1848C10.4243 10.0914 10.93 10.1442 11.3891 10.3367C11.8483 10.5292 12.2404 10.8528 12.5166 11.267C12.7927 11.6812 12.9406 12.1677 12.9417 12.6655Z" fill="#339992"/>
</svg>
