<svg width="18" height="18" viewBox="0 0 18 18" fill="none" xmlns="http://www.w3.org/2000/svg">
<path d="M17.1343 0.365833C16.9771 0.208748 16.7809 0.0964067 16.5659 0.04038C16.3508 -0.0156467 16.1247 -0.013333 15.9109 0.0470827H15.8992L0.903842 4.59708C0.660401 4.66724 0.444025 4.80972 0.283388 5.00563C0.122752 5.20154 0.0254374 5.44164 0.00434177 5.69411C-0.0167538 5.94658 0.039365 6.1995 0.165262 6.41936C0.291158 6.63921 0.480889 6.81562 0.709311 6.92521L7.34369 10.1565L10.5702 16.7869C10.6706 17.0011 10.8302 17.1821 11.0301 17.3084C11.23 17.4348 11.4619 17.5014 11.6984 17.5002C11.7343 17.5002 11.7702 17.4986 11.8062 17.4955C12.0585 17.4751 12.2984 17.378 12.4939 17.2173C12.6894 17.0565 12.8311 16.8399 12.8999 16.5963L17.4468 1.60099C17.4468 1.59708 17.4468 1.59318 17.4468 1.58927C17.508 1.37596 17.5113 1.1502 17.4564 0.935191C17.4015 0.720179 17.2903 0.523664 17.1343 0.365833ZM11.7054 16.2385L11.7015 16.2494V16.244L8.57181 9.81427L12.3218 6.06427C12.4341 5.94611 12.4957 5.78876 12.4936 5.62579C12.4916 5.46281 12.4259 5.3071 12.3106 5.19185C12.1954 5.07659 12.0397 5.01093 11.8767 5.00884C11.7137 5.00675 11.5564 5.06841 11.4382 5.18068L7.68822 8.93068L1.25619 5.80099H1.25072H1.26165L16.2499 1.25021L11.7054 16.2385Z" fill="#339992"/>
</svg>
