<svg width="17" height="16" viewBox="0 0 17 16" fill="none" xmlns="http://www.w3.org/2000/svg">
<path d="M15 3.75035H9.63359L12.3172 1.06754C12.4345 0.95026 12.5003 0.7912 12.5003 0.625348C12.5003 0.459495 12.4345 0.300435 12.3172 0.18316C12.1999 0.0658847 12.0409 0 11.875 0C11.7091 0 11.5501 0.0658847 11.4328 0.18316L8.125 3.49175L4.81719 0.18316C4.75912 0.125091 4.69018 0.0790283 4.61431 0.0476017C4.53844 0.016175 4.45712 0 4.375 0C4.29288 0 4.21156 0.016175 4.13569 0.0476017C4.05982 0.0790283 3.99088 0.125091 3.93281 0.18316C3.81554 0.300435 3.74965 0.459495 3.74965 0.625348C3.74965 0.7912 3.81554 0.95026 3.93281 1.06754L6.61641 3.75035H1.25C0.918479 3.75035 0.600537 3.88204 0.366116 4.11646C0.131696 4.35088 0 4.66883 0 5.00035V14.3753C0 14.7069 0.131696 15.0248 0.366116 15.2592C0.600537 15.4937 0.918479 15.6253 1.25 15.6253H15C15.3315 15.6253 15.6495 15.4937 15.8839 15.2592C16.1183 15.0248 16.25 14.7069 16.25 14.3753V5.00035C16.25 4.66883 16.1183 4.35088 15.8839 4.11646C15.6495 3.88204 15.3315 3.75035 15 3.75035ZM15 14.3753H1.25V5.00035H15V14.3753Z" fill="#64748B"/>
</svg>
